inDegrees=yes
name=ik_S48_A11_T02
DataType=double
version=3
OpenSimVersion=4.3-2021-08-27-4bc7ad9
endheader
time	pelvis_tilt	pelvis_list	pelvis_rotation	pelvis_tx	pelvis_ty	pelvis_tz	hip_flexion_r	hip_adduction_r	hip_rotation_r	knee_angle_r	knee_angle_r_beta	ankle_angle_r	subtalar_angle_r	mtp_angle_r	hip_flexion_l	hip_adduction_l	hip_rotation_l	knee_angle_l	knee_angle_l_beta	ankle_angle_l	subtalar_angle_l	mtp_angle_l	lumbar_extension	lumbar_bending	lumbar_rotation	arm_flex_r	arm_add_r	arm_rot_r	elbow_flex_r	pro_sup_r	wrist_flex_r	wrist_dev_r	arm_flex_l	arm_add_l	arm_rot_l	elbow_flex_l	pro_sup_l	wrist_flex_l	wrist_dev_l
3.460000000000003	-2.088818628240003	-1.54872548806734	26.99312347922311	0	0.9399999999999999	0	19.46187332024114	-7.338919651425032	-6.20757646708103	21.58308477383672	0.3766958920405065	0	0	0	19.46187332024114	-7.338919651425032	-6.20757646708103	21.58308477383672	0.3766958920405065	0	0	0	-1.668670875790003	-1.116432374420783	10.26323911950622	28.7540335129201	-11.659246397902	-18.17939581509599	10.67774321125628	113.9446842267988	0	0	14.73887368191033	-14.39692719285375	-7.581116379390917	14.14134270857553	123.5861738278568	0	0
3.480000000000003	-2.136677657282544	-1.70872814371688	26.8338749336359	0	0.9399999999999999	0	19.47687819582051	-7.34377373490825	-6.212020507515477	21.59885048614931	0.3769710556292833	0	0	0	19.47687819582051	-7.34377373490825	-6.212020507515477	21.59885048614931	0.3769710556292833	0	0	0	-1.778354244923193	-1.249360032943879	10.46011875615393	31.58018708272667	-12.03425002690004	-18.85238027438291	11.42475168160304	113.5116059139493	0	0	15.17623737792859	-14.47962931665752	-7.261972937080563	13.91653964766897	123.5350717159482	0	0
3.500000000000003	-2.076765512989489	-1.760742296775432	26.67186253399353	0	0.9399999999999999	0	19.48455669581138	-7.346245210983956	-6.21428834630299	21.60694435353935	0.3771123202644594	0	0	0	19.48455669581138	-7.346245210983956	-6.21428834630299	21.60694435353935	0.3771123202644594	0	0	0	-1.744541872997363	-1.331199923372194	10.58999596368638	34.28200818675244	-12.3493442016953	-19.46379262136345	12.05955083041064	113.2129440681691	0	0	15.19760891786449	-14.61724277517934	-7.195241365072627	13.88399112013059	123.6059319325418	0	0
3.520000000000003	-1.985655500816826	-1.749324052202526	26.51035616372396	0	0.9399999999999999	0	19.49177340204668	-7.348565611944013	-6.21641869274028	21.61455426115247	0.3772451382080809	0	0	0	19.49177340204668	-7.348565611944013	-6.21641869274028	21.61455426115247	0.3772451382080809	0	0	0	-1.65529153009506	-1.368582853539873	10.6849694690289	36.92404715097025	-12.59557376988392	-19.96899067448234	12.68698783809202	112.969144495063	0	0	15.03143569828497	-14.69351298884696	-7.216201492988283	13.82947789963908	123.7450979073999	0	0
3.540000000000003	-1.893691079987946	-1.733510723903983	26.38273215406305	0	0.9399999999999999	0	19.49935517580275	-7.35100275951508	-6.218656672473737	21.62254721976763	0.377384641652891	0	0	0	19.49935517580275	-7.35100275951508	-6.218656672473737	21.62254721976763	0.377384641652891	0	0	0	-1.565081993030555	-1.398879905314548	10.72719929999212	39.60791959747848	-12.65928803282099	-20.20624596083627	13.3067344416888	112.7077949248595	0	0	14.90327370075803	-14.72738100708819	-7.210863419294804	13.72626753959984	123.8607993878679	0	0
3.560000000000003	-1.863556556716184	-1.74856819269786	26.37984795536745	0	0.9399999999999999	0	19.50888828489764	-7.354069393978146	-6.221472132723388	21.63258655246948	0.3775598610632414	0	0	0	19.50888828489764	-7.354069393978146	-6.221472132723388	21.63258655246948	0.3775598610632414	0	0	0	-1.544940468053126	-1.424441705470478	10.69671588772839	42.38927094344177	-12.60024714861117	-20.00798698415938	14.09454405668464	112.2555565518131	0	0	14.94494818567218	-14.74989547023688	-7.164907343894173	13.61089234628974	123.9591229734122	0	0
3.580000000000003	-1.794457421841752	-1.77556152713945	26.40418523657846	0	0.9399999999999999	0	19.51691729559144	-7.356647078584047	-6.223840924273138	21.64105032591138	0.3777075817769456	0	0	0	19.51691729559144	-7.356647078584047	-6.223840924273138	21.64105032591138	0.3777075817769456	0	0	0	-1.496751755972168	-1.47445761721231	10.65001951314909	45.06252848457756	-12.32283525938489	-19.94212456961078	14.96952458558621	112.0205039768032	0	0	14.92747104708941	-14.82217057680175	-7.093286319038139	13.5420841513109	123.993856456977	0	0
3.600000000000003	-1.709386068904307	-1.780974512715567	26.41600210424956	0	0.9399999999999999	0	19.52472393878534	-7.359151606703349	-6.226143416579852	21.64927995142535	0.3778512158383704	0	0	0	19.52472393878534	-7.359151606703349	-6.226143416579852	21.64927995142535	0.3778512158383704	0	0	0	-1.424169401093565	-1.515248995846042	10.61117627002235	47.74341952319089	-11.98839642958363	-20.09139615695225	15.75175421743146	112.0362084474585	0	0	14.84467982776995	-14.91278735373817	-7.086934514081348	13.475138667789	124.1015929934276	0	0
3.620000000000003	-1.633882955928635	-1.795765697885472	26.45654584977346	0	0.9399999999999999	0	19.53309798302118	-7.361838437568637	-6.228613644980673	21.65810287510141	0.3780052049061697	0	0	0	19.53309798302118	-7.361838437568637	-6.228613644980673	21.65810287510141	0.3780052049061697	0	0	0	-1.365264747277075	-1.557790685801234	10.55796217107654	50.43244154259804	-11.54407794889051	-20.29389494558245	16.67238366777424	112.0653984941455	0	0	14.81510938376204	-14.97608035074369	-7.077290391243847	13.40290297358971	124.2022346561125	0	0
3.640000000000003	-1.560680524982452	-1.810451129704895	26.55364569029531	0	0.9399999999999999	0	19.5471963538569	-7.366368236283826	-6.232776465925631	21.67293028385858	0.3782639920085214	0	0	0	19.5471963538569	-7.366368236283826	-6.232776465925631	21.67293028385858	0.3782639920085214	0	0	0	-1.308301918976817	-1.599620940305082	10.49500703494698	53.07159522521311	-11.24177238191316	-20.41436097880538	13.96279874953089	112.7773933896496	0	0	14.80425607245647	-15.03256272984253	-7.023025718048695	13.29499943690879	124.2554831437625	0	0
3.660000000000003	-1.48398178195648	-1.822589631563	26.69131324460283	0	0.9399999999999999	0	19.59538187840088	-7.381782047614321	-6.246979557769279	21.72359735809246	0.379148299276255	0	0	0	19.59538187840088	-7.381782047614321	-6.246979557769279	21.72359735809246	0.379148299276255	0	0	0	-1.247303930359368	-1.641488184285225	10.42362353447758	52.95554928427697	-11.03481945486238	-20.44372623953064	17.63313776030443	111.8830744133527	0	0	14.76872943160305	-15.10608053489043	-6.984566592901666	13.25847867186863	124.272871699184	0	0
3.680000000000003	-1.418529463820139	-1.88873678808929	26.93828389997219	0	0.9399999999999999	0	19.61315928972317	-7.387481568927445	-6.252226433179726	21.74225144672154	0.3794738745417914	0	0	0	19.61315928972317	-7.387481568927445	-6.252226433179726	21.74225144672154	0.3794738745417914	0	0	0	-1.221945405445072	-1.722819265259664	10.33275154574108	55.61329946969502	-10.56712556570142	-20.33314679405347	18.65536589366266	111.4077052957859	0	0	14.84832186415654	-15.25093469693051	-6.894902691507586	13.22817807660768	124.3537441195403	0	0
3.700000000000003	-1.325973080331013	-1.889524555509126	27.21416479763083	0	0.9399999999999999	0	19.87180317109453	-7.447890295179555	-6.316411325071126	22.07116292719478	0.3852144628236583	0	0	0	19.87180317109453	-7.447890295179555	-6.316411325071126	22.07116292719478	0.3852144628236583	0	0	0	-1.148597251717009	-1.754600737150342	10.2114260312297	58.13377916198867	-10.07420107729039	-20.10823026262344	19.68308880111885	110.8540782927588	0	0	14.7937671056883	-15.29621310282466	-6.865192064930752	13.22285840274438	124.4101410405621	0	0
3.720000000000003	-1.223370658269538	-1.900719672427241	27.52108334080614	0	0.9399999999999999	0	20.12787951053365	-7.506976753257426	-6.379575403318231	22.39627252606714	0.3908886957538191	0	0	0	20.12787951053365	-7.506976753257426	-6.379575403318231	22.39627252606714	0.3908886957538191	0	0	0	-1.071613891680108	-1.800562338095207	10.08984022952126	60.60423998762335	-9.547105048475437	-19.95489444256252	20.82094643295438	110.3060113726312	0	0	14.74148224291691	-15.40536079433564	-6.818021112185158	13.2458083920356	124.4166186047184	0	0
3.740000000000003	-1.132981178384749	-1.994718948116908	28.06898257563974	0	0.9399999999999999	0	20.37986751677496	-7.565050538934715	-6.441707872664268	22.71394660989893	0.3964331544649403	0	0	0	20.37986751677496	-7.565050538934715	-6.441707872664268	22.71394660989893	0.3964331544649403	0	0	0	-1.051255520473498	-1.895385218089913	9.863437573117684	65.90026518130604	-8.461335145729395	-19.25751527665079	19.30111159492883	109.9655218305899	0	0	14.84784880487972	-15.60677899398324	-6.639653954164498	13.28902548413426	124.336891360383	0	0
3.760000000000003	-1.113806774277915	-2.03925441567316	28.39260665924958	0	0.9399999999999999	0	20.394643736115	-7.569629244963266	-6.446005109308686	22.72927619278487	0.3967007061592573	0	0	0	20.394643736115	-7.569629244963266	-6.446005109308686	22.72927619278487	0.3967007061592573	0	0	0	-1.062136421196114	-1.935277222497436	9.666592655871431	68.51884689447732	-7.658088503658286	-18.44041924797822	20.3715622895492	109.1439601696421	0	0	14.96019182151851	-15.68520509213981	-6.674965546019685	13.27508697816157	124.4181552779642	0	0
3.780000000000003	-1.053790520268009	-2.083982566219106	29.03624891506461	0	0.9399999999999999	0	20.75834622926786	-7.651055070365003	-6.534378666341491	23.19044247191886	0.4047495761293168	0	0	0	20.75834622926786	-7.651055070365003	-6.534378666341491	23.19044247191886	0.4047495761293168	0	0	0	-1.051283864700675	-1.980088627654814	9.271119192712996	71.00073237485108	-6.765826644099507	-17.50362323079921	25.33344732938835	106.8237754226418	0	0	15.03176868522854	-15.77663782105221	-6.666264356457106	13.26721691338176	124.4643047929033	0	0
3.800000000000003	-0.9934344336746448	-2.127029458393753	29.43258514763897	0	0.9399999999999999	0	20.77778542597056	-7.656981625401624	-6.539992623816799	23.21048878926789	0.4050994503699569	0	0	0	20.77778542597056	-7.656981625401624	-6.539992623816799	23.21048878926789	0.4050994503699569	0	0	0	-1.02506944981222	-2.038876204435854	9.14296027501228	73.38821008532921	-6.099487355333315	-16.8242143338569	26.44354791265492	105.3508743810989	0	0	15.07097922206994	-15.85577060604618	-6.358977458422586	13.26312716579378	124.1342505939917	0	0
3.820000000000003	-0.9729804490959456	-2.171273521937163	29.73675180205863	0	0.9399999999999999	0	20.79098311409129	-7.660993568537269	-6.543798337294166	23.22411623353064	0.4053372941409739	0	0	0	20.79098311409129	-7.660993568537269	-6.543798337294166	23.22411623353064	0.4053372941409739	0	0	0	-1.035736269128295	-2.076905027585801	8.975000350183292	75.87168559025197	-5.366477603111718	-16.43454718814655	27.2757460211788	104.3303344338777	0	0	15.12327215534047	-15.94265735764155	-6.320704784300442	13.29504059401136	124.0554473104499	0	0
3.840000000000003	-0.9305119177209394	-2.245056168662953	30.12860579376698	0	0.9399999999999999	0	20.80134940853371	-7.664139350527225	-6.546785028574703	23.2348264155632	0.4055242220809301	0	0	0	20.80134940853371	-7.664139350527225	-6.546785028574703	23.2348264155632	0.4055242220809301	0	0	0	-1.03918739643668	-2.157807229534905	8.873823397980253	78.31150676198608	-4.870040503703341	-16.43668122616031	27.995251936962	103.7217402478936	0	0	15.14438347703222	-16.12855824142656	-6.390155368729993	13.35773954095566	124.0908843591333	0	0
3.860000000000003	-0.8505615906653495	-2.315423932244627	30.56837973379553	0	0.9399999999999999	0	20.80759302881465	-7.66602574641151	-6.548579456601122	23.24129632975138	0.4056371433858353	0	0	0	20.80759302881465	-7.66602574641151	-6.548579456601122	23.24129632975138	0.4056371433858353	0	0	0	-1.008030746570117	-2.255402853934217	8.823610641294083	80.6948840739943	-4.405633586986392	-16.67787726628256	28.43944859199045	103.471119788886	0	0	15.13453056156487	-16.29173206064636	-6.24465419831944	13.44598081086564	124.1351512879048	0	0
3.880000000000003	-0.8256379504763413	-2.360633233008897	30.85286493703833	0	0.9399999999999999	0	20.8152222181275	-7.668332241996201	-6.550773133970031	23.24919444142648	0.405774991439256	0	0	0	20.8152222181275	-7.668332241996201	-6.550773133970031	23.24919444142648	0.405774991439256	0	0	0	-1.016110738563492	-2.297907339673707	8.657076192817005	83.15385076852438	-3.707515028936347	-16.62911721123066	28.67755532349918	103.2014884946027	0	0	15.09776016918493	-16.38939947658265	-6.40303293732903	13.50508487368898	124.2615989829339	0	0
